<?xml version="1.0" standalone="no"?>
<!DOCTYPE svg PUBLIC "-//W3C//DTD SVG 20010904//EN"
 "http://www.w3.org/TR/2001/REC-SVG-20010904/DTD/svg10.dtd">
<svg version="1.0" xmlns="http://www.w3.org/2000/svg"
 width="1280.000000pt" height="1280.000000pt" viewBox="0 0 1280.000000 1280.000000"
 preserveAspectRatio="xMidYMid meet">
<metadata>
Created by potrace 1.14, written by Peter Selinger 2001-2017
</metadata>
<g transform="translate(0.000000,1280.000000) scale(0.100000,-0.100000)"
fill="#000000" stroke="none">
<path d="M7288 12723 c7 -3 16 -2 19 1 4 3 -2 6 -13 5 -11 0 -14 -3 -6 -6z"/>
<path d="M7528 12683 c7 -3 16 -2 19 1 4 3 -2 6 -13 5 -11 0 -14 -3 -6 -6z"/>
<path d="M7608 12613 c7 -3 16 -2 19 1 4 3 -2 6 -13 5 -11 0 -14 -3 -6 -6z"/>
<path d="M7958 12588 c5 -5 16 -8 23 -6 8 3 3 7 -10 11 -17 4 -21 3 -13 -5z"/>
<path d="M7910 12570 c-9 -6 -10 -10 -3 -10 6 0 15 5 18 10 8 12 4 12 -15 0z"/>
<path d="M8028 12573 c7 -3 16 -2 19 1 4 3 -2 6 -13 5 -11 0 -14 -3 -6 -6z"/>
<path d="M7948 12513 c6 -2 18 -2 25 0 6 3 1 5 -13 5 -14 0 -19 -2 -12 -5z"/>
<path d="M8108 12473 c7 -3 16 -2 19 1 4 3 -2 6 -13 5 -11 0 -14 -3 -6 -6z"/>
<path d="M8435 12430 c3 -5 10 -10 16 -10 5 0 9 5 9 10 0 6 -7 10 -16 10 -8 0
-12 -4 -9 -10z"/>
<path d="M8448 12403 c7 -3 16 -2 19 1 4 3 -2 6 -13 5 -11 0 -14 -3 -6 -6z"/>
<path d="M8348 12393 c6 -2 18 -2 25 0 6 3 1 5 -13 5 -14 0 -19 -2 -12 -5z"/>
<path d="M8535 12380 c3 -5 10 -10 16 -10 5 0 9 5 9 10 0 6 -7 10 -16 10 -8 0
-12 -4 -9 -10z"/>
<path d="M8470 12360 c8 -5 20 -10 25 -10 6 0 3 5 -5 10 -8 5 -19 10 -25 10
-5 0 -3 -5 5 -10z"/>
<path d="M8684 12340 c16 -5 33 -15 37 -22 7 -10 9 -10 9 -1 0 15 -32 33 -57
32 -10 0 -6 -4 11 -9z"/>
<path d="M8790 12320 c8 -5 20 -10 25 -10 6 0 3 5 -5 10 -8 5 -19 10 -25 10
-5 0 -3 -5 5 -10z"/>
<path d="M8715 12290 c3 -5 17 -10 30 -10 13 0 27 5 30 10 4 6 -8 10 -30 10
-22 0 -34 -4 -30 -10z"/>
<path d="M8855 12281 c-16 -3 -25 -9 -20 -13 10 -6 55 7 55 17 0 3 -1 4 -2 4
-2 -1 -16 -4 -33 -8z"/>
<path d="M8725 12260 c28 -12 37 -12 30 0 -3 6 -16 10 -28 9 -21 0 -21 -1 -2
-9z"/>
<path d="M8850 12246 c0 -2 9 -6 20 -9 11 -3 20 -1 20 4 0 5 -9 9 -20 9 -11 0
-20 -2 -20 -4z"/>
<path d="M8965 12239 c-11 -16 -1 -19 13 -3 7 8 8 14 3 14 -5 0 -13 -5 -16
-11z"/>
<path d="M8995 12230 c-3 -4 7 -11 21 -14 35 -9 39 -4 8 11 -13 6 -26 8 -29 3z"/>
<path d="M8905 12220 c3 -5 13 -10 21 -10 8 0 14 5 14 10 0 6 -9 10 -21 10
-11 0 -17 -4 -14 -10z"/>
<path d="M8866 12211 c-3 -5 1 -11 9 -15 8 -3 15 -1 15 4 0 13 -18 22 -24 11z"/>
<path d="M9074 12195 c22 -17 40 -20 32 -6 -3 5 -16 11 -28 14 -22 6 -22 5 -4
-8z"/>
<path d="M8961 12196 c2 -2 18 -6 34 -10 22 -5 26 -4 15 4 -14 9 -59 15 -49 6z"/>
<path d="M8936 12176 c21 -15 30 -14 19 3 -3 6 -14 11 -23 11 -13 0 -13 -2 4
-14z"/>
<path d="M9036 12174 c-3 -9 -3 -21 1 -27 4 -7 0 -8 -13 -3 -14 5 -16 4 -7 -4
8 -9 16 -9 30 -1 10 6 12 11 6 11 -7 0 -13 5 -13 11 0 6 9 8 23 3 12 -3 20 -5
17 -2 -34 27 -38 28 -44 12z"/>
<path d="M9237 12119 c7 -7 15 -10 18 -7 3 3 -2 9 -12 12 -14 6 -15 5 -6 -5z"/>
<path d="M9203 12102 c1 -13 7 -18 19 -14 11 2 17 5 16 6 -2 1 -11 7 -20 15
-15 11 -17 10 -15 -7z"/>
<path d="M9399 12036 c11 -12 51 -29 51 -21 0 2 -14 10 -31 19 -23 12 -28 12
-20 2z"/>
<path d="M9366 12004 c-10 -10 -24 -13 -38 -9 -14 3 -6 -5 17 -19 22 -14 45
-26 50 -26 6 0 1 6 -10 12 -11 6 -22 13 -24 14 -2 2 6 13 19 24 13 11 18 20
12 20 -6 0 -18 -7 -26 -16z"/>
<path d="M9480 11991 c0 -9 30 -24 36 -18 2 1 -6 8 -16 15 -11 7 -20 8 -20 3z"/>
<path d="M9400 11980 c0 -5 7 -10 15 -10 8 0 15 5 15 10 0 6 -7 10 -15 10 -8
0 -15 -4 -15 -10z"/>
<path d="M9474 11955 c11 -8 26 -15 34 -15 8 0 10 -5 6 -12 -5 -10 -4 -10 6
-1 17 16 12 21 -31 33 -31 9 -32 8 -15 -5z"/>
<path d="M9550 11950 c13 -9 13 -11 0 -21 -13 -9 -12 -10 3 -5 10 3 24 6 30 6
7 0 3 7 -7 15 -11 8 -25 15 -30 15 -6 0 -4 -5 4 -10z"/>
<path d="M9603 11924 c4 -4 2 -13 -4 -21 -9 -10 -8 -13 0 -13 7 0 10 -4 6 -10
-3 -5 7 -5 25 1 36 13 40 22 5 13 -25 -6 -37 10 -13 18 7 3 4 7 -7 12 -11 4
-16 4 -12 0z"/>
<path d="M9535 11880 c-4 -6 -4 -10 -1 -10 2 0 11 -3 20 -6 9 -3 16 -2 16 4 0
14 -28 23 -35 12z"/>
<path d="M9693 11866 c15 -14 33 -26 39 -26 13 0 14 0 -32 29 l-35 23 28 -26z"/>
<path d="M9633 11862 c-9 -6 -7 -11 7 -20 14 -9 20 -9 20 -1 0 6 7 8 16 5 14
-5 15 -4 4 9 -14 17 -29 19 -47 7z"/>
<path d="M9588 11853 c6 -2 9 -10 6 -15 -4 -7 -2 -8 5 -4 13 9 5 26 -12 25 -9
0 -8 -2 1 -6z"/>
<path d="M9690 11820 c8 -5 22 -9 30 -9 10 0 8 3 -5 9 -27 12 -43 12 -25 0z"/>
<path d="M9757 11803 c-12 -12 -7 -19 12 -19 15 0 17 3 9 13 -12 15 -13 15
-21 6z"/>
<path d="M9690 11780 c20 -13 33 -13 25 0 -3 6 -14 10 -23 10 -15 0 -15 -2 -2
-10z"/>
<path d="M9832 11785 c4 -4 -2 -16 -13 -26 -11 -9 -16 -20 -11 -23 9 -5 21 4
36 31 3 6 1 15 -6 19 -7 4 -10 4 -6 -1z"/>
<path d="M9768 11759 c-10 -5 -18 -15 -18 -22 0 -9 2 -9 8 0 4 7 19 16 32 22
14 5 18 10 10 10 -8 0 -23 -4 -32 -10z"/>
<path d="M9850 11736 c0 -9 5 -16 10 -16 6 0 10 4 10 9 0 6 -4 13 -10 16 -5 3
-10 -1 -10 -9z"/>
<path d="M9890 11746 c0 -3 9 -10 20 -16 11 -6 20 -8 20 -6 0 3 -9 10 -20 16
-11 6 -20 8 -20 6z"/>
<path d="M9830 11711 c0 -6 4 -13 10 -16 6 -3 7 1 4 9 -7 18 -14 21 -14 7z"/>
<path d="M9885 11710 c3 -5 13 -10 21 -10 8 0 13 -4 10 -8 -2 -4 3 -8 13 -8
10 0 18 9 19 21 1 16 -1 17 -8 5 -7 -12 -12 -12 -22 -2 -14 14 -42 16 -33 2z"/>
<path d="M9857 11684 c-8 -9 1 -24 14 -24 6 0 8 4 5 9 -4 5 0 12 6 14 9 4 8 6
-3 6 -9 1 -19 -2 -22 -5z"/>
<path d="M9983 11678 c20 -7 26 -15 22 -28 -6 -19 11 -37 23 -25 3 3 0 10 -8
15 -10 7 -11 10 -2 10 6 0 12 4 12 8 0 10 -45 32 -63 31 -7 0 1 -5 16 -11z"/>
<path d="M9945 11656 c17 -7 32 -11 35 -9 8 7 -24 23 -45 22 -15 0 -13 -3 10
-13z"/>
<path d="M9890 11650 c0 -5 5 -10 10 -10 6 0 10 5 10 10 0 6 -4 10 -10 10 -5
0 -10 -4 -10 -10z"/>
<path d="M9930 11626 c0 -2 7 -6 15 -10 8 -3 15 -1 15 4 0 6 -7 10 -15 10 -8
0 -15 -2 -15 -4z"/>
<path d="M10055 11619 c-11 -16 -1 -19 13 -3 7 8 8 14 3 14 -5 0 -13 -5 -16
-11z"/>
<path d="M10001 11596 c-9 -11 -9 -16 0 -22 8 -4 9 -3 5 4 -4 7 -1 12 8 12 8
0 18 5 21 10 10 15 -21 12 -34 -4z"/>
<path d="M10080 11585 c0 -14 -3 -15 -15 -5 -9 7 -17 11 -20 8 -2 -2 4 -11 15
-21 18 -15 19 -15 25 4 4 11 4 23 1 26 -3 4 -6 -2 -6 -12z"/>
<path d="M10120 11581 c0 -4 11 -13 25 -19 14 -6 25 -16 25 -22 0 -5 6 -10 13
-10 7 0 29 -12 48 -26 19 -14 41 -29 49 -34 8 -5 12 -12 7 -16 -4 -4 -16 1
-27 11 -16 15 -20 15 -15 3 3 -8 16 -20 28 -26 20 -10 20 -11 3 -11 -20 -1
-20 -1 0 -16 15 -12 16 -16 6 -23 -10 -7 -5 -11 18 -15 17 -4 29 -11 25 -16
-3 -6 -13 -8 -23 -5 -14 5 -14 4 -3 -4 10 -7 20 -6 33 1 10 7 14 13 8 15 -12
4 -14 22 -2 22 4 0 23 -14 41 -31 31 -28 32 -31 16 -43 -12 -9 -14 -15 -7 -20
6 -3 16 3 23 16 11 20 8 25 -26 55 -22 18 -44 32 -49 30 -14 -5 -46 11 -46 22
0 5 9 11 20 14 11 3 20 2 20 -3 0 -4 8 -11 17 -14 15 -6 15 -5 -1 13 -10 11
-24 17 -34 14 -9 -4 -13 -2 -9 4 4 6 -10 24 -31 39 -61 48 -152 104 -152 95z"/>
<path d="M10130 11520 c6 -11 8 -26 4 -32 -4 -7 -3 -8 5 -4 6 4 18 2 26 -4 11
-9 15 -9 15 -1 0 6 -4 11 -10 11 -5 0 -12 11 -16 25 -3 14 -13 25 -20 25 -12
0 -12 -4 -4 -20z"/>
<path d="M2545 11500 c-16 -17 -16 -20 -3 -15 9 4 19 13 22 21 7 19 2 18 -19
-6z"/>
<path d="M10196 11445 c-3 -8 -1 -15 4 -15 13 0 22 18 11 24 -5 3 -11 -1 -15
-9z"/>
<path d="M10235 11411 c-3 -5 -2 -12 3 -15 5 -3 9 1 9 9 0 17 -3 19 -12 6z"/>
<path d="M10395 11381 c11 -13 38 -37 60 -54 l40 -30 -35 33 c-19 19 -46 43
-60 54 l-25 21 20 -24z"/>
<path d="M2420 11370 c-9 -6 -10 -10 -3 -10 6 0 15 5 18 10 8 12 4 12 -15 0z"/>
<path d="M2460 11370 c-9 -6 -10 -10 -3 -10 6 0 15 5 18 10 8 12 4 12 -15 0z"/>
<path d="M10360 11340 c0 -5 5 -10 10 -10 6 0 10 5 10 10 0 6 -4 10 -10 10 -5
0 -10 -4 -10 -10z"/>
<path d="M2339 11293 c-13 -15 -12 -15 9 -4 23 12 28 21 13 21 -5 0 -15 -7
-22 -17z"/>
<path d="M10427 11296 c-4 -10 -1 -13 7 -10 8 3 17 1 20 -4 3 -6 -1 -12 -9
-16 -8 -3 -15 -10 -15 -15 0 -13 48 11 55 27 2 7 1 11 -4 8 -5 -3 -14 1 -21 9
-16 19 -26 19 -33 1z"/>
<path d="M10525 11260 c3 -5 11 -10 16 -10 6 0 7 5 4 10 -3 6 -11 10 -16 10
-6 0 -7 -4 -4 -10z"/>
<path d="M10490 11253 c0 -15 47 -36 64 -30 9 4 16 12 15 19 0 9 -2 9 -5 2 -5
-13 -41 -7 -61 9 -8 6 -13 6 -13 0z"/>
<path d="M10462 11234 c-7 -8 -8 -14 -3 -14 10 0 25 19 20 25 -2 1 -10 -3 -17
-11z"/>
<path d="M2210 11220 c0 -5 5 -10 11 -10 5 0 7 5 4 10 -3 6 -8 10 -11 10 -2 0
-4 -4 -4 -10z"/>
<path d="M10515 11200 c12 -5 14 -9 6 -9 -11 -1 -12 -4 -3 -13 8 -8 15 -8 27
2 22 19 19 25 -18 27 -26 1 -28 0 -12 -7z"/>
<path d="M10660 11150 c0 -5 10 -15 23 -21 22 -12 22 -12 3 10 -21 23 -26 26
-26 11z"/>
<path d="M10644 11132 c3 -5 0 -13 -6 -15 -9 -4 -10 -6 -1 -6 17 -1 25 16 12
25 -7 4 -9 3 -5 -4z"/>
<path d="M2047 11075 c-15 -14 -27 -29 -27 -32 0 -4 14 6 30 22 28 26 34 35
27 35 -1 0 -15 -11 -30 -25z"/>
<path d="M10720 11099 c0 -3 23 -26 51 -53 28 -26 46 -40 41 -29 -6 10 -21 27
-34 37 -13 10 -31 26 -40 34 -10 8 -18 13 -18 11z"/>
<path d="M10676 11043 c-6 -14 -5 -15 5 -6 7 7 10 15 7 18 -3 3 -9 -2 -12 -12z"/>
<path d="M10723 11039 c-1 -11 5 -19 14 -19 9 0 28 -10 41 -22 16 -15 23 -18
20 -8 -2 8 -19 22 -37 31 -17 10 -26 19 -20 21 9 3 9 6 -2 10 -10 4 -15 -1
-16 -13z"/>
<path d="M1985 11010 c3 -5 8 -10 11 -10 2 0 4 5 4 10 0 6 -5 10 -11 10 -5 0
-7 -4 -4 -10z"/>
<path d="M1947 10983 c-3 -5 6 -9 19 -9 13 -1 24 2 24 7 0 11 -37 12 -43 2z"/>
<path d="M2001 10974 c0 -11 3 -14 6 -6 3 7 2 16 -1 19 -3 4 -6 -2 -5 -13z"/>
<path d="M10742 10970 c7 -11 18 -20 25 -20 9 0 7 6 -4 20 -10 11 -21 20 -25
20 -5 0 -3 -9 4 -20z"/>
<path d="M10819 10973 c-12 -15 -12 -16 4 -10 10 4 27 2 38 -3 24 -13 25 -2 2
16 -23 17 -28 17 -44 -3z"/>
<path d="M1958 10943 c-10 -2 -18 -9 -18 -14 0 -6 7 -6 18 -1 9 5 24 12 32 15
13 5 13 5 0 5 -8 0 -23 -2 -32 -5z"/>
<path d="M10797 10943 c-14 -13 -6 -21 14 -16 30 8 54 -24 36 -45 -10 -12 -9
-14 3 -10 19 6 25 45 10 64 -13 14 -51 19 -63 7z"/>
<path d="M1895 10930 c-3 -5 -1 -10 4 -10 6 0 11 5 11 10 0 6 -2 10 -4 10 -3
0 -8 -4 -11 -10z"/>
<path d="M10890 10930 c0 -5 5 -10 11 -10 5 0 7 5 4 10 -3 6 -8 10 -11 10 -2
0 -4 -4 -4 -10z"/>
<path d="M1957 10889 c-5 -20 -5 -20 14 -3 23 20 23 24 5 24 -7 0 -16 -9 -19
-21z"/>
<path d="M10815 10900 c3 -5 8 -10 11 -10 2 0 4 5 4 10 0 6 -5 10 -11 10 -5 0
-7 -4 -4 -10z"/>
<path d="M10880 10898 c0 -10 4 -18 9 -18 18 0 41 12 41 22 0 6 -7 5 -16 -3
-13 -10 -17 -10 -25 2 -7 11 -9 11 -9 -3z"/>
<path d="M1910 10873 c0 -5 5 -15 10 -23 7 -12 9 -10 7 8 -1 19 -17 33 -17 15z"/>
<path d="M10950 10873 c0 -13 29 -38 35 -31 3 3 -4 13 -15 23 -11 10 -20 13
-20 8z"/>
<path d="M10876 10854 c-5 -14 -4 -15 9 -4 17 14 19 20 6 20 -5 0 -12 -7 -15
-16z"/>
<path d="M10910 10865 c0 -3 8 -17 17 -31 14 -22 14 -27 2 -36 -12 -8 -12 -9
1 -5 24 6 25 54 1 67 -12 6 -21 8 -21 5z"/>
<path d="M1861 10851 c-7 -5 -12 -14 -10 -20 2 -6 10 -2 17 9 14 22 13 23 -7
11z"/>
<path d="M1830 10839 c0 -6 -7 -9 -14 -6 -10 4 -13 1 -9 -9 3 -7 10 -14 17
-14 6 0 4 -5 -4 -10 -13 -8 -13 -10 1 -10 11 0 16 9 16 30 0 17 -2 30 -4 30
-1 0 -3 -5 -3 -11z"/>
<path d="M10890 10831 c0 -5 5 -13 10 -16 6 -3 10 -2 10 4 0 5 -4 13 -10 16
-5 3 -10 2 -10 -4z"/>
<path d="M1890 10819 c0 -5 5 -7 10 -4 6 3 10 8 10 11 0 2 -4 4 -10 4 -5 0
-10 -5 -10 -11z"/>
<path d="M11022 10796 c26 -25 31 -26 23 -3 -4 8 -15 17 -26 20 -19 5 -19 4 3
-17z"/>
<path d="M1857 10799 c7 -7 15 -10 18 -7 3 3 -2 9 -12 12 -14 6 -15 5 -6 -5z"/>
<path d="M10954 10787 c-14 -16 -6 -37 14 -37 12 0 13 3 4 12 -9 9 -7 14 6 24
14 11 14 13 2 13 -8 0 -20 -5 -26 -12z"/>
<path d="M1836 10763 c-6 -14 -5 -15 5 -6 7 7 10 15 7 18 -3 3 -9 -2 -12 -12z"/>
<path d="M11005 10770 c3 -5 8 -10 11 -10 2 0 4 5 4 10 0 6 -5 10 -11 10 -5 0
-7 -4 -4 -10z"/>
<path d="M1716 10742 l-19 -27 24 22 c12 12 21 24 18 27 -2 2 -13 -8 -23 -22z"/>
<path d="M11060 10764 c0 -6 17 -26 38 -45 l37 -34 -35 40 c-19 22 -36 42 -37
44 -2 2 -3 0 -3 -5z"/>
<path d="M1743 10735 c-10 -11 -9 -13 7 -12 11 1 20 7 20 14 0 17 -12 16 -27
-2z"/>
<path d="M11040 10741 c0 -10 19 -25 25 -20 1 2 -3 10 -11 17 -8 7 -14 8 -14
3z"/>
<path d="M10990 10725 c0 -8 4 -15 10 -15 5 0 7 7 4 15 -4 8 -8 15 -10 15 -2
0 -4 -7 -4 -15z"/>
<path d="M1786 10714 c-11 -7 -17 -17 -13 -20 3 -4 14 1 23 10 21 22 15 28
-10 10z"/>
<path d="M1645 10670 c-3 -6 -2 -10 3 -10 6 0 13 -11 16 -25 4 -14 10 -25 15
-25 12 0 45 39 38 46 -11 11 -39 -5 -31 -17 4 -8 3 -9 -5 -5 -6 4 -9 10 -7 14
2 4 -2 13 -10 19 -8 8 -15 9 -19 3z"/>
<path d="M11140 10670 c0 -5 5 -10 11 -10 5 0 7 5 4 10 -3 6 -8 10 -11 10 -2
0 -4 -4 -4 -10z"/>
<path d="M11090 10620 c0 -5 5 -10 10 -10 6 0 10 5 10 10 0 6 -4 10 -10 10 -5
0 -10 -4 -10 -10z"/>
<path d="M1566 10575 c-11 -8 -15 -15 -9 -15 6 0 16 7 23 15 16 19 11 19 -14
0z"/>
<path d="M11228 10571 c12 -11 22 -22 22 -27 0 -4 8 -13 17 -20 10 -7 15 -16
11 -20 -4 -4 -14 -1 -22 5 -10 9 -16 9 -21 1 -4 -7 2 -14 15 -17 15 -4 19 -10
14 -22 -15 -36 -16 -51 -4 -51 7 0 28 -11 46 -25 37 -28 46 -31 43 -12 -4 33
0 40 18 26 15 -13 15 -12 2 8 -9 16 -16 19 -21 10 -5 -9 -14 -5 -30 12 -16 16
-19 25 -10 28 17 7 -73 124 -95 123 -4 -1 2 -9 15 -19z m62 -96 c-14 -17 -3
-42 21 -48 10 -3 19 -10 19 -16 0 -16 -13 -13 -42 10 -23 18 -24 24 -15 49 6
16 15 26 19 23 5 -2 4 -11 -2 -18z"/>
<path d="M1580 10555 c-10 -12 -10 -15 4 -15 9 0 16 7 16 15 0 8 -2 15 -4 15
-2 0 -9 -7 -16 -15z"/>
<path d="M11200 10561 c0 -6 -8 -7 -17 -4 -16 6 -17 5 -3 -11 8 -11 16 -14 18
-7 2 6 8 9 13 5 5 -3 9 -1 9 5 0 5 -4 13 -10 16 -5 3 -10 2 -10 -4z"/>
<path d="M1625 10552 c-5 -4 -16 -14 -23 -23 -10 -14 -10 -18 3 -23 9 -3 13
-2 10 4 -7 11 12 33 35 43 13 5 13 5 0 6 -8 0 -19 -3 -25 -7z"/>
<path d="M1535 10540 c-3 -5 -2 -10 4 -10 5 0 13 5 16 10 3 6 2 10 -4 10 -5 0
-13 -4 -16 -10z"/>
<path d="M1506 10503 c-6 -14 -5 -15 5 -6 7 7 10 15 7 18 -3 3 -9 -2 -12 -12z"/>
<path d="M1545 10510 c-3 -5 1 -10 9 -10 9 0 16 5 16 10 0 6 -4 10 -9 10 -6 0
-13 -4 -16 -10z"/>
<path d="M1493 10450 c-32 -31 -41 -45 -35 -59 7 -19 8 -19 32 1 24 20 24 20
3 14 -32 -10 -21 13 17 39 17 11 30 26 30 33 0 16 1 17 -47 -28z"/>
<path d="M1578 10483 c7 -3 16 -2 19 1 4 3 -2 6 -13 5 -11 0 -14 -3 -6 -6z"/>
<path d="M11205 10480 c-3 -6 1 -7 9 -4 18 7 21 14 7 14 -6 0 -13 -4 -16 -10z"/>
<path d="M11220 10460 c0 -5 5 -10 10 -10 6 0 10 5 10 10 0 6 -4 10 -10 10 -5
0 -10 -4 -10 -10z"/>
<path d="M1460 10449 c0 -5 5 -7 10 -4 6 3 10 8 10 11 0 2 -4 4 -10 4 -5 0
-10 -5 -10 -11z"/>
<path d="M11325 10450 c3 -5 8 -10 11 -10 2 0 4 5 4 10 0 6 -5 10 -11 10 -5 0
-7 -4 -4 -10z"/>
<path d="M1430 10379 c0 -6 -7 -8 -17 -5 -15 6 -15 4 2 -14 24 -26 11 -39 -15
-15 -11 10 -20 13 -20 7 0 -13 39 -36 47 -28 4 3 12 1 18 -4 9 -8 11 -4 7 15
-2 14 -9 22 -14 19 -6 -4 -8 2 -3 15 3 11 4 21 1 21 -3 0 -6 -5 -6 -11z"/>
<path d="M11360 10385 c0 -5 5 -17 10 -25 5 -8 10 -10 10 -5 0 6 -5 17 -10 25
-5 8 -10 11 -10 5z"/>
<path d="M1487 10373 c-4 -3 -7 -11 -7 -17 0 -6 5 -5 12 2 6 6 9 14 7 17 -3 3
-9 2 -12 -2z"/>
<path d="M11300 10371 c0 -5 5 -13 10 -16 6 -3 10 -2 10 4 0 5 -4 13 -10 16
-5 3 -10 2 -10 -4z"/>
<path d="M11390 10340 c-13 -11 -18 -20 -12 -20 10 0 42 27 42 36 0 8 -7 4
-30 -16z"/>
<path d="M11347 10327 c-7 -19 8 -43 17 -28 4 6 3 11 -3 11 -6 0 -8 7 -5 15 4
8 4 15 1 15 -3 0 -7 -6 -10 -13z"/>
<path d="M11427 10333 c-10 -9 -9 -23 1 -23 5 0 9 7 9 15 0 17 -1 18 -10 8z"/>
<path d="M1360 10309 c0 -5 -4 -8 -9 -4 -10 5 -57 -53 -49 -61 3 -2 11 7 18
21 17 31 27 32 36 3 11 -38 46 -53 37 -17 -4 15 1 27 18 40 22 17 22 19 5 19
-11 0 -28 -7 -38 -17 -20 -18 -25 -4 -6 15 9 9 9 12 0 12 -7 0 -12 -5 -12 -11z"/>
<path d="M11407 10280 c3 -11 9 -20 14 -20 11 0 11 3 3 24 -9 23 -23 20 -17
-4z"/>
<path d="M11441 10292 c-1 -20 18 -52 31 -52 7 0 5 7 -4 18 -9 9 -18 24 -21
32 -4 10 -6 11 -6 2z"/>
<path d="M11477 10270 c9 -16 21 -30 25 -30 5 0 -1 14 -14 30 -12 17 -23 30
-25 30 -2 0 4 -13 14 -30z"/>
<path d="M1330 10255 c-8 -9 -8 -15 -2 -15 12 0 26 19 19 26 -2 2 -10 -2 -17
-11z"/>
<path d="M11385 10260 c3 -5 8 -10 11 -10 2 0 4 5 4 10 0 6 -5 10 -11 10 -5 0
-7 -4 -4 -10z"/>
<path d="M1333 10223 c-8 -22 -33 -53 -44 -53 -4 0 -11 9 -14 21 -6 19 -10 17
-35 -22 -16 -23 -27 -46 -24 -51 8 -13 24 1 24 23 0 10 4 19 9 19 4 0 6 -12 3
-26 -5 -25 -4 -26 19 -13 13 7 29 12 35 11 6 -1 17 5 24 13 9 10 9 15 1 15 -6
0 -11 7 -11 15 0 13 12 17 36 14 14 -2 22 26 12 38 -15 18 -27 16 -35 -4z
m-49 -73 c-6 -5 -24 21 -24 34 0 6 6 1 14 -10 8 -10 12 -21 10 -24z m36 0 c0
-5 -4 -10 -10 -10 -5 0 -10 5 -10 10 0 6 5 10 10 10 6 0 10 -4 10 -10z"/>
<path d="M11526 10194 c-7 -19 1 -34 18 -34 8 0 16 -9 19 -20 3 -11 10 -20 16
-20 5 0 3 13 -7 30 -10 17 -23 28 -30 25 -9 -3 -11 1 -7 15 8 24 0 27 -9 4z"/>
<path d="M11505 10140 c3 -5 8 -10 11 -10 2 0 4 5 4 10 0 6 -5 10 -11 10 -5 0
-7 -4 -4 -10z"/>
<path d="M1276 10094 c-5 -14 -4 -15 9 -4 17 14 19 20 6 20 -5 0 -12 -7 -15
-16z"/>
<path d="M10168 10093 c-10 -11 -18 -23 -18 -27 0 -17 -134 -211 -178 -260
-121 -132 -259 -256 -386 -347 -76 -54 -145 -99 -153 -99 -7 0 -13 -3 -13 -7
0 -5 -10 -13 -23 -19 -12 -7 -76 -39 -141 -73 -66 -33 -126 -61 -133 -61 -7 0
-13 -4 -13 -8 0 -4 -20 -14 -45 -21 -25 -7 -45 -17 -45 -22 0 -5 -13 -9 -30
-9 -16 0 -30 -4 -30 -10 0 -5 -11 -10 -25 -10 -14 0 -25 -3 -25 -8 0 -8 -71
-32 -95 -32 -8 0 -25 -5 -38 -12 -12 -6 -28 -14 -36 -18 -8 -3 -17 -13 -19
-20 -4 -11 1 -10 21 3 33 21 57 12 57 -22 0 -49 10 -53 78 -32 29 9 32 8 32
-10 0 -18 -6 -20 -42 -19 -67 3 -68 3 -68 -35 0 -24 -5 -35 -15 -35 -13 0 -15
-29 -15 -199 0 -199 0 -200 -22 -204 -21 -4 -21 -4 2 -6 15 0 31 4 37 10 6 6
21 8 34 4 21 -7 21 -8 3 -18 -10 -6 -38 -10 -61 -8 -33 2 -43 -1 -43 -13 0
-13 5 -14 26 -6 33 13 54 13 54 0 0 -5 -13 -10 -28 -10 -16 0 -31 -3 -35 -6
-8 -8 3 -34 15 -34 5 0 6 5 3 10 -3 6 0 10 8 10 16 0 92 56 152 111 22 21 45
38 50 40 10 2 131 115 164 152 9 10 45 48 80 83 52 53 62 67 50 75 -10 8 -9 9
7 4 14 -4 24 0 28 10 6 17 36 21 36 5 0 -6 -10 -27 -23 -48 -13 -20 -41 -66
-62 -102 -22 -36 -43 -69 -47 -75 -4 -5 -19 -24 -33 -41 -14 -18 -25 -35 -25
-38 0 -3 -8 -14 -17 -25 -16 -17 -33 -36 -113 -132 -14 -17 -44 -49 -67 -71
-24 -23 -43 -50 -43 -61 0 -17 -2 -18 -17 -6 -15 12 -16 12 -10 -4 4 -10 3
-16 -1 -13 -4 2 -14 0 -22 -5 -13 -8 -13 -10 0 -20 12 -8 11 -9 -6 -5 -27 8
-75 -31 -55 -43 10 -7 10 -13 2 -29 -16 -30 -14 -82 4 -88 10 -4 15 -20 15
-44 0 -30 5 -40 20 -45 30 -10 27 -53 -5 -61 -14 -3 -25 -10 -25 -15 0 -5 -28
-9 -62 -9 -41 0 -58 -3 -49 -9 11 -7 9 -10 -10 -14 -19 -3 -18 -5 9 -6 17 0
32 4 32 9 0 6 23 10 51 10 31 0 48 4 44 10 -4 6 10 10 34 10 23 0 41 5 41 10
0 6 16 10 35 10 19 0 35 5 35 10 0 6 14 10 30 10 17 0 30 5 30 10 0 6 11 10
25 10 14 0 25 5 25 10 0 6 11 10 24 10 13 0 29 6 35 14 7 8 26 18 42 21 16 4
29 11 29 16 0 5 9 9 19 9 11 0 22 4 26 9 3 5 19 12 35 16 17 4 30 10 30 15 0
4 13 13 29 20 16 6 37 19 47 28 11 9 45 35 78 57 68 46 262 236 271 265 4 11
10 20 15 20 14 0 115 145 150 215 8 17 17 32 20 35 12 12 30 51 30 65 0 8 5
15 10 15 6 0 10 9 10 20 0 11 5 20 10 20 6 0 10 9 10 20 0 11 5 20 10 20 6 0
10 9 10 19 0 11 5 23 10 26 6 3 10 14 10 24 0 10 8 40 19 67 10 27 29 83 41
124 12 41 26 88 31 104 5 16 9 42 9 57 0 15 5 31 10 34 6 3 10 25 10 49 0 24
4 56 9 72 18 57 33 291 29 463 -3 166 -4 172 -20 154z m-1278 -1023 c-8 -5
-19 -10 -25 -10 -5 0 -3 5 5 10 8 5 20 10 25 10 6 0 3 -5 -5 -10z m-60 -10 c0
-5 21 -11 48 -12 45 -1 46 -2 8 -5 -22 -3 -50 -2 -63 1 -25 7 -32 26 -8 26 8
0 15 -4 15 -10z m77 -382 c-2 -24 -4 -7 -4 37 0 44 2 63 4 43 2 -21 2 -57 0
-80z m-41 -72 c30 -31 8 -76 -43 -89 -25 -6 -27 1 -17 52 4 17 13 31 20 31 8
0 14 5 14 10 0 14 9 12 26 -4z m74 -356 c0 -5 -6 -10 -14 -10 -8 0 -18 5 -21
10 -3 6 3 10 14 10 12 0 21 -4 21 -10z m-30 -27 c0 -30 -17 -50 -31 -36 -9 9
-15 8 -28 -4 -12 -12 -13 -17 -3 -21 7 -2 12 -21 12 -43 0 -32 -3 -39 -20 -39
-17 0 -20 7 -20 49 0 30 5 51 13 54 9 4 8 8 -3 16 -13 9 -13 11 1 11 9 0 22 7
29 15 17 21 50 19 50 -2z m127 -229 c-3 -3 -12 -4 -19 -1 -8 3 -5 6 6 6 11 1
17 -2 13 -5z m-80 -10 c-3 -3 -12 -4 -19 -1 -8 3 -5 6 6 6 11 1 17 -2 13 -5z"/>
<path d="M11500 10106 c0 -2 7 -9 15 -16 13 -11 14 -10 9 4 -5 14 -24 23 -24
12z"/>
<path d="M11600 10102 c0 -6 -8 -13 -17 -15 -16 -4 -16 -5 -1 -6 18 -1 34 16
24 26 -3 4 -6 1 -6 -5z"/>
<path d="M1180 10085 c-8 -10 -8 -19 -1 -34 14 -25 14 -34 0 -25 -7 4 -10 1
-7 -7 4 -11 38 -15 44 -6 9 13 12 57 4 57 -5 0 -10 -7 -10 -15 0 -20 -16 -19
-24 1 -8 21 1 34 19 27 8 -3 15 -3 15 0 0 13 -30 14 -40 2z"/>
<path d="M11536 10072 c-2 -4 -1 -14 3 -21 6 -9 10 -7 14 8 5 20 -7 29 -17 13z"/>
<path d="M11607 10055 c-8 -8 -18 -11 -22 -7 -5 4 -5 -2 0 -13 4 -11 10 -29
12 -40 l5 -20 -16 20 c-17 19 -17 19 -5 -4 11 -23 12 -24 25 -6 10 13 11 22 3
31 -8 10 -7 18 5 29 9 9 16 18 16 21 0 8 -9 4 -23 -11z"/>
<path d="M1129 10018 c-1 -7 -1 -29 0 -49 2 -20 -2 -39 -7 -43 -5 -3 -8 7 -6
22 2 18 0 15 -7 -10 -11 -38 -33 -64 -59 -70 -26 -5 -42 -35 -30 -57 14 -26
13 -31 -5 -25 -14 6 -20 -6 -16 -29 1 -5 -7 -16 -18 -25 -11 -9 -29 -35 -40
-57 -12 -22 -21 -34 -21 -27 0 6 -5 12 -11 12 -6 0 -8 -7 -5 -16 7 -18 -11
-47 -25 -39 -9 6 -33 -34 -25 -42 3 -3 10 5 16 18 9 21 9 19 4 -11 -4 -28 -3
-32 6 -20 9 12 11 9 7 -15 -3 -16 -1 -39 4 -50 7 -16 8 -14 4 9 -5 23 -3 27 9
23 10 -4 13 -1 9 9 -3 8 1 14 11 14 18 0 21 22 7 48 -5 11 -3 26 9 45 17 27
18 27 23 7 3 -13 0 -23 -9 -27 -18 -7 -18 -23 -1 -23 18 0 41 45 32 60 -4 7 7
24 26 41 18 16 29 29 24 29 -5 0 -19 -10 -32 -22 -32 -30 -40 -16 -12 22 15
20 30 30 41 27 9 -3 23 2 30 11 10 12 10 14 1 8 -7 -4 -13 -3 -13 3 0 5 -3 17
-6 25 -5 12 -2 15 11 9 15 -5 17 -2 11 20 -5 22 -3 27 11 27 15 0 16 -2 3 -10
-13 -8 -13 -10 2 -10 20 0 32 16 18 25 -16 10 -11 28 6 21 12 -5 15 -2 10 9
-3 9 -2 13 4 10 6 -3 10 -1 10 5 0 7 7 10 15 7 8 -4 17 -2 20 3 4 6 -1 10 -9
10 -20 0 -20 19 -1 40 13 14 14 22 4 44 -13 28 -28 34 -30 14z m-89 -178 c0
-5 -5 -10 -11 -10 -5 0 -7 5 -4 10 3 6 8 10 11 10 2 0 4 -4 4 -10z m-120 -260
c0 -5 -5 -10 -11 -10 -5 0 -7 5 -4 10 3 6 8 10 11 10 2 0 4 -4 4 -10z"/>
<path d="M11650 10020 c0 -19 -3 -25 -19 -37 -14 -11 -14 -12 2 -13 9 0 17 -7
17 -15 0 -8 5 -15 10 -15 14 0 12 28 -2 33 -7 2 -10 8 -6 12 11 12 28 -5 28
-29 0 -13 -10 -31 -22 -40 -16 -12 -18 -16 -5 -12 9 3 17 1 17 -4 0 -6 -5 -10
-12 -10 -15 0 -1 -13 17 -16 11 -2 12 3 4 23 -8 23 -8 24 6 13 18 -15 18 -15
4 49 -8 37 -14 48 -25 44 -10 -4 -12 0 -8 11 3 9 3 16 0 16 -3 0 -6 -4 -6 -10z"/>
<path d="M1185 9992 c-6 -6 4 -22 15 -22 4 0 10 6 13 13 5 13 -17 20 -28 9z"/>
<path d="M1165 9940 c-3 -5 -2 -10 4 -10 5 0 13 5 16 10 3 6 2 10 -4 10 -5 0
-13 -4 -16 -10z"/>
<path d="M11616 9936 c3 -9 11 -16 16 -16 13 0 5 23 -10 28 -7 2 -10 -2 -6
-12z"/>
<path d="M1060 9910 c-8 -16 -8 -20 4 -20 9 0 14 8 13 20 -1 11 -2 20 -4 20
-1 0 -7 -9 -13 -20z"/>
<path d="M11727 9909 c4 -13 8 -18 11 -10 2 7 -1 18 -6 23 -8 8 -9 4 -5 -13z"/>
<path d="M11704 9863 c-11 -20 -7 -56 5 -48 5 2 22 0 39 -4 23 -7 32 -6 36 5
7 19 -14 53 -30 47 -6 -2 -15 0 -19 6 -9 16 -19 14 -31 -6z m41 -23 c3 -5 -1
-10 -9 -10 -8 0 -18 5 -21 10 -3 6 1 10 9 10 8 0 18 -4 21 -10z m35 -11 c0 -5
-4 -9 -10 -9 -5 0 -10 7 -10 16 0 8 5 12 10 9 6 -3 10 -10 10 -16z"/>
<path d="M11754 9778 c-3 -4 0 -8 6 -8 6 0 8 -4 5 -10 -3 -5 1 -10 10 -10 10
0 13 5 9 12 -5 7 -2 9 9 5 11 -4 14 -2 11 8 -6 14 -42 16 -50 3z"/>
<path d="M942 9720 c-7 -11 -8 -20 -3 -20 9 0 24 30 18 36 -1 2 -8 -6 -15 -16z"/>
<path d="M11800 9730 c0 -5 5 -10 10 -10 6 0 10 5 10 10 0 6 -4 10 -10 10 -5
0 -10 -4 -10 -10z"/>
<path d="M11855 9713 c7 -24 -10 -32 -18 -10 -3 7 -6 5 -6 -5 -1 -10 -7 -18
-13 -18 -10 0 -10 -2 -1 -8 7 -4 14 -25 17 -47 2 -22 5 -42 5 -45 1 -3 5 2 11
10 5 8 5 19 1 25 -5 5 -10 22 -13 37 -4 20 0 28 14 31 10 3 18 0 18 -6 0 -6 3
-8 6 -5 3 4 -2 19 -11 35 -12 22 -14 23 -10 6z"/>
<path d="M11850 9653 c1 -20 39 -56 53 -50 8 3 20 0 27 -6 9 -8 8 -5 -1 10 -9
16 -16 19 -21 10 -5 -9 -11 -6 -22 8 -9 11 -16 23 -16 28 0 4 -4 7 -10 7 -5 0
-10 -3 -10 -7z"/>
<path d="M11900 9575 c0 -8 5 -15 10 -15 6 0 10 -7 10 -17 0 -9 2 -14 5 -11 9
8 -6 58 -16 58 -5 0 -9 -7 -9 -15z"/>
<path d="M11860 9555 c0 -8 5 -15 10 -15 6 0 10 7 10 15 0 8 -4 15 -10 15 -5
0 -10 -7 -10 -15z"/>
<path d="M11948 9531 c-10 -10 -19 -33 -20 -51 -2 -27 2 -37 18 -44 12 -5 27
-24 34 -40 8 -22 19 -31 35 -32 23 -2 23 -1 8 22 -9 14 -18 23 -20 21 -2 -3
-20 11 -39 30 -20 19 -33 37 -29 41 3 4 11 -1 16 -11 6 -9 18 -17 27 -17 15 1
15 2 2 13 -30 25 -39 51 -21 64 9 6 14 13 11 16 -3 2 -13 -3 -22 -12z"/>
<path d="M11890 9525 c-11 -13 -10 -14 4 -9 9 3 16 10 16 15 0 13 -6 11 -20
-6z"/>
<path d="M820 9514 c0 -8 5 -12 10 -9 6 4 8 11 5 16 -9 14 -15 11 -15 -7z"/>
<path d="M856 9522 c2 -2 -1 -13 -7 -24 -7 -13 -17 -17 -32 -13 -13 4 -17 3
-10 -2 6 -4 12 -15 13 -23 3 -23 -11 -60 -21 -55 -10 7 -32 -32 -34 -59 -1
-10 -9 -24 -17 -30 -26 -19 -62 -98 -48 -106 8 -5 7 -9 -4 -13 -19 -8 -21 -37
-3 -37 7 0 18 14 25 32 6 17 14 29 18 26 3 -4 0 -16 -6 -28 -6 -11 -10 -26 -8
-32 5 -14 58 89 57 110 0 10 -6 5 -13 -12 -8 -17 -16 -24 -20 -18 -9 16 11 52
29 52 8 0 15 8 15 17 0 9 3 13 7 9 9 -9 63 79 63 104 0 11 5 20 10 20 12 0 3
70 -10 81 -4 4 -5 4 -4 1z m-6 -97 c0 -13 -25 -55 -32 -55 -6 0 -7 6 -4 13 3
6 9 20 12 30 6 15 24 25 24 12z"/>
<path d="M11965 9510 c-3 -6 1 -13 10 -16 21 -9 26 -2 10 13 -9 8 -16 9 -20 3z"/>
<path d="M11901 9484 c0 -11 3 -14 6 -6 3 7 2 16 -1 19 -3 4 -6 -2 -5 -13z"/>
<path d="M777 9443 c-4 -3 -7 -11 -7 -17 0 -6 5 -5 12 2 6 6 9 14 7 17 -3 3
-9 2 -12 -2z"/>
<path d="M12010 9441 c0 -5 5 -13 10 -16 6 -3 10 -2 10 4 0 5 -4 13 -10 16 -5
3 -10 2 -10 -4z"/>
<path d="M11940 9408 c0 -9 5 -20 10 -23 13 -8 13 5 0 25 -8 13 -10 13 -10 -2z"/>
<path d="M755 9399 c-4 -6 -5 -12 -2 -15 2 -3 7 2 10 11 7 17 1 20 -8 4z"/>
<path d="M12036 9397 c3 -10 9 -15 12 -12 3 3 0 11 -7 18 -10 9 -11 8 -5 -6z"/>
<path d="M11970 9350 c0 -5 4 -10 9 -10 5 0 12 -8 14 -17 4 -16 5 -16 6 1 1
11 6 16 15 13 10 -4 13 -1 9 9 -6 17 -20 18 -26 2 -4 -10 -6 -10 -6 0 -1 14
-21 17 -21 2z"/>
<path d="M703 9293 c-7 -15 -11 -28 -9 -31 6 -6 28 38 24 48 -2 5 -9 -3 -15
-17z"/>
<path d="M12050 9295 c0 -8 -7 -15 -15 -15 -17 0 -21 -35 -5 -45 6 -3 10 3 10
15 0 12 4 19 9 16 4 -3 6 -18 3 -32 -3 -19 -1 -25 7 -20 6 4 11 16 11 26 0 19
17 36 26 27 3 -3 1 -15 -6 -26 -7 -14 -7 -21 0 -21 5 0 10 8 10 18 0 14 4 12
21 -8 l20 -25 -18 38 c-9 20 -23 37 -30 37 -7 0 -13 4 -13 9 0 5 -7 11 -15 15
-9 3 -15 0 -15 -9z"/>
<path d="M667 9220 c-3 -12 0 -20 8 -20 8 0 11 8 8 20 -3 11 -7 20 -8 20 -1 0
-5 -9 -8 -20z"/>
<path d="M12060 9171 c0 -5 5 -13 10 -16 6 -3 10 -2 10 4 0 5 -4 13 -10 16 -5
3 -10 2 -10 -4z"/>
<path d="M660 9162 c0 -12 19 -26 26 -19 2 2 -2 10 -11 17 -9 8 -15 8 -15 2z"/>
<path d="M616 9121 c-4 -7 -5 -15 -2 -18 9 -9 19 4 14 18 -4 11 -6 11 -12 0z"/>
<path d="M12169 9123 c-1 -5 -1 -16 0 -25 1 -10 -3 -18 -8 -18 -6 0 -11 9 -11
20 0 13 -7 20 -20 20 -24 0 -37 -27 -21 -43 8 -8 11 -5 11 12 0 31 16 18 24
-19 3 -18 10 -29 16 -25 6 4 9 3 8 -2 -5 -14 25 -83 35 -83 5 0 11 9 14 20 3
11 9 20 13 20 5 0 3 11 -3 24 -7 13 -15 22 -20 19 -4 -3 -3 -11 4 -19 8 -10 9
-18 2 -25 -14 -14 -21 -2 -29 47 -5 34 -4 37 10 25 20 -17 20 -12 0 27 -15 32
-23 39 -25 25z"/>
<path d="M687 9100 c3 -11 7 -20 9 -20 2 0 4 9 4 20 0 11 -4 20 -9 20 -5 0 -7
-9 -4 -20z"/>
<path d="M650 9091 c0 -7 -6 -11 -15 -7 -10 3 -15 -1 -15 -12 0 -15 -2 -15
-10 -2 -13 19 -13 4 0 -19 6 -13 5 -24 -6 -37 -15 -18 -15 -18 -10 -1 9 30 -5
41 -19 15 -8 -15 -8 -27 -2 -36 5 -7 7 -16 3 -19 -4 -4 -11 -1 -16 7 -6 10 -9
6 -8 -15 1 -35 -10 -75 -20 -74 -19 3 -26 -2 -13 -10 22 -14 1 -85 -27 -89
-27 -4 -28 -13 -3 -29 16 -10 22 -8 35 12 9 13 16 32 17 42 0 14 2 13 9 -4 9
-21 23 -33 18 -15 -1 4 5 21 14 38 13 24 15 39 7 74 -10 45 -8 56 11 45 6 -4
8 -16 4 -27 -4 -14 -3 -18 6 -13 8 5 10 19 5 41 -3 21 -2 34 5 34 5 0 10 8 10
19 0 20 27 48 37 37 3 -3 1 -6 -5 -6 -7 0 -12 -8 -12 -17 1 -16 2 -16 15 1 8
11 15 25 15 31 0 17 -29 53 -30 36z m-82 -216 c0 -13 -4 -22 -9 -19 -5 3 -9
14 -9 25 0 10 4 19 9 19 5 0 9 -11 9 -25z"/>
<path d="M12120 9054 c1 -16 29 -60 29 -44 0 8 -6 24 -14 34 -8 11 -15 16 -15
10z"/>
<path d="M8690 9029 c0 -5 5 -7 10 -4 6 3 10 8 10 11 0 2 -4 4 -10 4 -5 0 -10
-5 -10 -11z"/>
<path d="M8580 9007 c0 -8 12 -14 30 -14 26 0 27 2 12 13 -22 17 -42 17 -42 1z"/>
<path d="M8528 8993 c6 -2 18 -2 25 0 6 3 1 5 -13 5 -14 0 -19 -2 -12 -5z"/>
<path d="M12229 8971 c-22 -22 -31 -105 -13 -128 12 -16 13 -15 4 11 -9 24 -8
27 5 23 8 -4 21 1 30 9 8 9 15 11 15 5 0 -6 4 -11 10 -11 6 0 5 10 -2 25 -6
14 -16 25 -21 25 -5 0 -7 9 -4 19 7 28 -6 40 -24 22z m16 -11 c-3 -5 -12 -10
-18 -10 -7 0 -6 4 3 10 19 12 23 12 15 0z m15 -49 c0 -5 -7 -14 -15 -21 -16
-14 -18 -10 -9 14 6 17 24 22 24 7z"/>
<path d="M8493 8973 c9 -2 23 -2 30 0 6 3 -1 5 -18 5 -16 0 -22 -2 -12 -5z"/>
<path d="M8568 8973 c7 -3 16 -2 19 1 4 3 -2 6 -13 5 -11 0 -14 -3 -6 -6z"/>
<path d="M12260 8846 c0 -14 5 -28 10 -31 6 -3 10 5 10 19 0 14 -4 28 -10 31
-6 3 -10 -5 -10 -19z"/>
<path d="M492 8831 c-7 -18 -7 -31 -2 -31 11 0 25 48 17 56 -2 3 -9 -9 -15
-25z"/>
<path d="M12291 8833 c-1 -18 4 -33 10 -33 8 0 8 -4 2 -12 -6 -7 -13 -30 -16
-51 -5 -33 -4 -37 8 -27 8 7 15 24 15 37 0 23 2 24 17 12 9 -8 15 -9 12 -4 -5
11 -21 47 -37 85 -10 25 -11 25 -11 -7z"/>
<path d="M12241 8823 c0 -6 -4 -18 -7 -27 -4 -11 2 -15 25 -14 33 1 44 18 12
18 -11 0 -22 8 -24 18 -3 9 -5 12 -6 5z"/>
<path d="M12254 8745 c6 -13 14 -21 18 -19 10 6 -1 31 -16 37 -11 4 -11 0 -2
-18z"/>
<path d="M524 8736 c-9 -20 -9 -23 2 -19 8 3 14 14 14 24 0 25 -3 24 -16 -5z"/>
<path d="M469 8709 c11 -10 21 -24 21 -33 0 -8 5 -18 12 -22 8 -5 9 0 4 17 -5
13 -8 31 -9 40 -1 9 -11 15 -25 15 l-24 0 21 -17z"/>
<path d="M12302 8700 c-14 -24 -16 -54 -2 -45 6 3 10 15 10 26 0 10 5 19 10
19 6 0 10 5 10 10 0 16 -14 11 -28 -10z"/>
<path d="M430 8674 c-13 -33 -13 -34 3 -34 8 0 14 12 14 30 0 37 -5 38 -17 4z"/>
<path d="M12330 8678 c-25 -28 -26 -48 -1 -41 12 3 21 16 23 34 5 35 4 35 -22
7z"/>
<path d="M450 8675 c0 -3 9 -15 20 -27 15 -16 20 -18 20 -7 0 8 -5 20 -12 27
-12 12 -28 16 -28 7z"/>
<path d="M12325 8610 c3 -5 15 -10 25 -10 10 0 22 5 25 10 4 6 -7 10 -25 10
-18 0 -29 -4 -25 -10z"/>
<path d="M12333 8564 c-3 -8 -1 -25 5 -37 10 -21 11 -21 12 8 2 18 4 23 7 13
6 -26 25 -22 21 4 -4 25 -37 33 -45 12z"/>
<path d="M419 8538 c0 -21 -1 -21 -8 -4 -13 35 -23 -1 -11 -39 11 -32 30 -48
30 -25 0 6 -4 10 -10 10 -16 0 -12 27 5 34 8 3 15 15 15 26 0 28 -20 26 -21
-2z"/>
<path d="M12390 8515 c0 -24 -2 -27 -11 -15 -8 11 -9 7 -3 -15 4 -16 8 -44 8
-62 1 -17 4 -29 9 -26 4 2 10 -3 13 -12 4 -10 13 -14 23 -11 11 4 10 1 -4 -10
-15 -13 -16 -15 -3 -11 9 3 22 -1 30 -10 10 -13 10 -17 1 -20 -7 -3 -13 -16
-13 -29 0 -14 -4 -22 -10 -19 -5 3 -10 2 -10 -4 0 -6 9 -15 20 -21 11 -6 22
-25 25 -48 4 -20 9 -46 12 -57 6 -20 6 -20 13 0 4 11 11 36 14 55 5 26 4 31
-3 20 -6 -8 -11 -26 -12 -40 -1 -18 -3 -20 -6 -7 -3 10 0 30 5 46 5 15 8 40 5
55 -4 21 -8 24 -19 15 -11 -9 -14 -7 -14 10 0 12 4 20 9 17 11 -7 2 34 -10 50
-5 6 -6 14 -2 17 3 4 1 7 -6 7 -7 0 -9 4 -6 10 3 6 -1 7 -9 4 -9 -3 -16 -1
-16 5 0 6 4 11 9 11 17 0 22 50 7 78 -13 25 -15 26 -21 7 -4 -11 -10 -29 -15
-40 -8 -18 -9 -18 -9 -2 -1 10 4 28 10 39 8 14 8 23 0 31 -8 8 -11 3 -11 -18z
m50 -50 c0 -5 -5 -3 -10 5 -5 8 -10 20 -10 25 0 6 5 3 10 -5 5 -8 10 -19 10
-25z m-29 -46 c-6 -16 -10 -18 -10 -7 -1 22 12 55 16 42 2 -6 -1 -22 -6 -35z
m79 -166 c0 -5 -4 -14 -9 -21 -7 -11 -9 -11 -14 1 -3 8 -3 18 0 21 9 8 23 7
23 -1z"/>
<path d="M359 8493 c-6 -29 -4 -93 2 -93 4 0 11 15 15 33 l7 32 13 -30 c14
-32 18 -25 7 13 -4 17 -11 22 -25 19 -15 -4 -18 -1 -13 14 4 10 4 19 1 19 -3
0 -7 -3 -7 -7z"/>
<path d="M381 8414 c0 -11 3 -14 6 -6 3 7 2 16 -1 19 -3 4 -6 -2 -5 -13z"/>
<path d="M8718 8381 c-1 -4 -21 -18 -43 -29 -22 -12 -33 -21 -25 -22 20 0 80
37 80 50 0 12 -7 13 -12 1z"/>
<path d="M401 8364 c0 -11 3 -14 6 -6 3 7 2 16 -1 19 -3 4 -6 -2 -5 -13z"/>
<path d="M370 8288 c0 -36 4 -35 14 5 4 16 2 27 -4 27 -5 0 -10 -14 -10 -32z"/>
<path d="M311 8284 c0 -11 3 -14 6 -6 3 7 2 16 -1 19 -3 4 -6 -2 -5 -13z"/>
<path d="M335 8243 c-6 -30 -9 -34 -14 -19 -4 11 -15 20 -24 22 -10 1 -14 -3
-10 -12 3 -8 0 -21 -7 -30 -10 -11 -10 -18 -2 -26 9 -9 12 -8 13 3 0 9 4 7 10
-6 6 -14 8 -7 4 25 -4 32 -2 39 4 25 5 -11 10 -38 12 -60 1 -40 2 -40 9 11 4
28 12 60 19 72 13 25 14 32 2 32 -5 0 -12 -17 -16 -37z"/>
<path d="M8550 8270 c-9 -6 -10 -10 -3 -10 6 0 15 5 18 10 8 12 4 12 -15 0z"/>
<path d="M8458 8223 c6 -2 18 -2 25 0 6 3 1 5 -13 5 -14 0 -19 -2 -12 -5z"/>
<path d="M351 8203 c-1 -6 -4 -20 -7 -30 -5 -17 -5 -17 6 0 6 10 9 23 6 30 -3
9 -5 9 -5 0z"/>
<path d="M12440 8198 c0 -7 5 -20 10 -28 8 -12 10 -11 10 7 0 12 -4 25 -10 28
-5 3 -10 0 -10 -7z"/>
<path d="M8750 8190 c0 -5 5 -10 10 -10 6 0 10 5 10 10 0 6 -4 10 -10 10 -5 0
-10 -4 -10 -10z"/>
<path d="M12514 8166 c4 -15 0 -28 -9 -36 -10 -8 -12 -18 -6 -29 5 -9 6 -22 4
-28 -3 -7 0 -13 6 -13 6 0 11 -8 11 -17 0 -15 -2 -14 -14 3 -8 10 -18 16 -22
11 -4 -4 -2 -13 4 -19 7 -7 12 -21 12 -31 0 -17 2 -18 17 -6 15 13 15 12 5 -8
-15 -27 -16 -66 -2 -58 5 3 9 -2 8 -12 -3 -40 3 -59 22 -71 21 -13 21 -12 3
20 -17 34 -26 101 -11 92 4 -3 8 15 8 40 0 25 -5 48 -11 51 -6 4 -8 14 -4 23
3 8 1 19 -6 22 -8 5 -8 13 -1 27 12 22 5 63 -10 63 -6 0 -7 -11 -4 -24z"/>
<path d="M8720 8166 c0 -8 -5 -16 -11 -18 -9 -3 -9 -10 0 -26 7 -12 9 -28 5
-34 -4 -7 -3 -8 4 -4 6 4 14 22 18 41 3 19 11 35 18 35 6 0 4 5 -4 10 -21 14
-30 12 -30 -4z"/>
<path d="M270 8151 c0 -20 13 -41 25 -41 10 0 11 5 2 25 -12 25 -27 34 -27 16z"/>
<path d="M12545 8110 c3 -5 8 -10 11 -10 2 0 4 5 4 10 0 6 -5 10 -11 10 -5 0
-7 -4 -4 -10z"/>
<path d="M260 8075 c0 -14 -4 -25 -10 -25 -5 0 -10 -8 -11 -17 -1 -12 -4 -10
-9 7 -7 21 -8 21 -9 5 -2 -43 15 -48 38 -10 23 39 27 65 11 65 -5 0 -10 -11
-10 -25z"/>
<path d="M8624 8089 c-3 -5 6 -9 20 -9 31 0 34 6 6 13 -11 3 -23 1 -26 -4z"/>
<path d="M8575 8060 c-19 -8 -19 -9 3 -9 12 -1 22 4 22 9 0 6 -1 10 -2 9 -2 0
-12 -4 -23 -9z"/>
<path d="M12575 8033 c2 -19 -1 -34 -8 -37 -9 -3 -8 -7 2 -14 8 -6 13 -23 13
-38 -2 -85 -4 -99 -18 -118 -14 -20 -14 -20 -15 -1 0 11 -3 14 -6 7 -3 -7 3
-24 12 -38 9 -14 14 -28 11 -31 -3 -3 1 -18 9 -34 8 -15 13 -40 11 -56 -2 -15
-1 -20 1 -10 9 34 20 16 26 -40 7 -64 3 -78 -13 -42 -10 22 -10 22 -4 -6 3
-16 12 -37 20 -46 11 -13 13 -30 8 -70 -7 -58 10 -61 19 -4 4 23 5 20 4 -9 -1
-24 3 -41 11 -44 6 -2 12 5 13 15 0 10 3 13 5 6 3 -6 -2 -26 -11 -43 -19 -37
-17 -84 6 -123 9 -16 16 -43 14 -60 -1 -18 0 -24 2 -14 6 24 21 21 26 -5 2
-13 5 2 6 32 1 30 4 66 6 80 4 20 4 21 -3 5 -8 -17 -9 -15 -15 12 -3 17 -9 44
-12 59 -6 28 -6 28 9 10 12 -15 16 -16 16 -5 0 21 -23 69 -33 69 -5 0 -5 9 -2
20 9 27 -3 25 -16 -2 -8 -19 -9 -15 -5 20 2 23 0 42 -5 42 -5 0 -8 17 -5 38 2
20 1 27 -1 15 -2 -13 -9 -23 -15 -23 -6 0 -8 10 -4 23 3 12 6 33 7 47 0 14 3
19 6 12 6 -16 23 -6 23 14 0 8 -4 12 -10 9 -5 -3 -10 2 -10 12 0 15 -2 16 -11
3 -9 -12 -9 -11 -4 5 4 11 9 31 11 45 l4 25 -8 -25 -8 -25 -12 22 c-16 30 -15
60 3 67 8 3 15 10 15 16 0 14 -27 13 -33 -2 -2 -7 -8 -9 -13 -5 -5 4 -3 12 4
16 9 5 11 18 7 37 -6 28 -6 28 10 9 17 -20 17 -19 9 5 -4 14 -18 66 -30 115
-13 50 -22 76 -19 58z m22 -145 c-3 -7 -5 -2 -5 12 0 14 2 19 5 13 2 -7 2 -19
0 -25z"/>
<path d="M275 8020 c-19 -36 -19 -46 -2 -28 22 21 39 58 28 58 -6 0 -17 -13
-26 -30z"/>
<path d="M8530 8031 c0 -5 9 -11 19 -14 14 -3 18 -1 14 9 -6 15 -33 19 -33 5z"/>
<path d="M8495 8010 c3 -5 8 -10 11 -10 2 0 4 5 4 10 0 6 -5 10 -11 10 -5 0
-7 -4 -4 -10z"/>
<path d="M205 7970 c-4 -12 -5 -24 -2 -27 3 -2 8 5 12 17 4 12 5 24 2 27 -3 2
-8 -5 -12 -17z"/>
<path d="M229 7954 c-6 -34 15 -65 25 -37 4 9 4 18 1 21 -3 3 -6 -1 -6 -9 -1
-8 -5 2 -8 21 l-7 35 -5 -31z"/>
<path d="M281 7954 c0 -11 3 -14 6 -6 3 7 2 16 -1 19 -3 4 -6 -2 -5 -13z"/>
<path d="M8398 7948 c5 -5 16 -8 23 -6 8 3 3 7 -10 11 -17 4 -21 3 -13 -5z"/>
<path d="M12557 7953 c-10 -9 -9 -41 1 -47 5 -3 9 8 10 24 1 32 -1 34 -11 23z"/>
<path d="M186 7894 c-4 -14 -5 -28 -3 -31 3 -2 8 8 11 23 4 14 5 28 3 31 -3 2
-8 -8 -11 -23z"/>
<path d="M8598 7913 c7 -3 16 -2 19 1 4 3 -2 6 -13 5 -11 0 -14 -3 -6 -6z"/>
<path d="M8564 7879 c14 -11 31 -17 37 -13 7 4 -1 12 -21 20 -44 19 -47 18
-16 -7z"/>
<path d="M206 7874 c-9 -22 -7 -56 2 -50 8 5 16 66 8 66 -2 0 -7 -7 -10 -16z"/>
<path d="M247 7883 c-11 -11 -8 -20 8 -20 8 0 15 6 15 14 0 14 -12 17 -23 6z"/>
<path d="M211 7664 c0 -11 3 -14 6 -6 3 7 2 16 -1 19 -3 4 -6 -2 -5 -13z"/>
<path d="M140 7581 c0 -5 5 -13 10 -16 6 -3 10 -2 10 4 0 5 -4 13 -10 16 -5 3
-10 2 -10 -4z"/>
<path d="M12681 7534 c0 -11 3 -14 6 -6 3 7 2 16 -1 19 -3 4 -6 -2 -5 -13z"/>
<path d="M132 7520 c0 -14 2 -19 5 -12 2 6 2 18 0 25 -3 6 -5 1 -5 -13z"/>
<path d="M12612 7500 c0 -14 2 -19 5 -12 2 6 2 18 0 25 -3 6 -5 1 -5 -13z"/>
<path d="M142 7455 c0 -16 2 -22 5 -12 2 9 2 23 0 30 -3 6 -5 -1 -5 -18z"/>
<path d="M116 7457 c3 -10 9 -15 12 -12 3 3 0 11 -7 18 -10 9 -11 8 -5 -6z"/>
<path d="M7846 7302 c-2 -4 4 -9 15 -9 10 -1 19 2 19 8 0 11 -27 12 -34 1z"/>
<path d="M7920 7255 c0 -14 4 -25 10 -25 5 0 7 7 4 15 -4 8 -1 15 6 15 6 0 8
5 5 10 -11 18 -25 10 -25 -15z"/>
<path d="M4035 7254 c-193 -30 -300 -67 -415 -145 -143 -96 -330 -323 -330
-401 0 -23 35 -41 63 -32 12 4 57 24 99 44 112 55 297 91 499 97 276 9 467
-31 684 -141 44 -22 89 -48 99 -58 11 -10 25 -18 32 -18 7 0 14 -3 16 -7 2 -5
28 -27 58 -49 134 -101 263 -247 385 -435 36 -55 65 -102 65 -105 0 -3 9 -14
20 -26 11 -12 20 -28 20 -35 0 -7 3 -13 8 -13 4 0 13 -15 21 -32 8 -18 17 -35
20 -38 3 -3 16 -25 29 -50 13 -25 32 -61 42 -80 28 -51 80 -169 80 -180 0 -6
4 -18 9 -28 5 -9 17 -37 27 -62 21 -54 47 -80 81 -80 27 0 52 17 128 89 28 25
75 67 105 91 30 25 60 50 68 57 7 7 26 20 42 30 17 9 30 21 30 25 0 4 5 8 11
8 5 0 36 17 67 38 104 69 267 141 422 185 206 59 292 71 500 70 196 0 221 -4
460 -66 80 -20 227 -80 288 -116 29 -17 55 -31 58 -31 18 0 162 -121 231 -193
144 -153 274 -377 323 -557 7 -25 16 -54 21 -65 16 -39 38 -231 39 -340 1
-126 3 -132 56 -140 24 -3 51 -13 60 -22 12 -12 18 -13 23 -4 6 9 16 9 42 -2
19 -8 53 -21 77 -28 30 -9 42 -18 42 -31 0 -10 3 -17 8 -17 28 5 52 -3 52 -17
0 -8 4 -13 9 -10 5 3 15 -1 22 -10 18 -22 65 -45 74 -36 5 4 5 1 1 -6 -4 -7
-3 -18 2 -25 7 -8 6 -18 -3 -31 -13 -17 -16 -17 -46 -2 -18 9 -42 16 -55 16
-30 0 -39 16 -17 29 10 5 14 13 10 17 -5 5 -11 3 -15 -3 -9 -15 -71 -14 -68 1
2 6 1 8 -1 4 -8 -14 -30 -8 -49 13 -12 13 -25 18 -40 15 -12 -3 -24 -2 -26 3
-2 6 -14 12 -28 15 -14 2 -41 8 -60 12 -19 3 -40 13 -47 21 -6 8 -14 10 -17 5
-3 -6 -16 -8 -29 -5 -14 3 -18 2 -10 -4 16 -11 -1 -147 -37 -303 -6 -25 -13
-62 -17 -82 -3 -21 -9 -38 -13 -38 -4 0 -11 -17 -14 -37 -16 -92 -19 -103 -27
-103 -5 0 -9 -13 -9 -29 0 -17 -4 -33 -10 -36 -5 -3 -10 -15 -10 -26 0 -11 -9
-39 -20 -61 -11 -23 -20 -50 -20 -60 0 -10 -4 -18 -10 -18 -5 0 -10 -8 -10
-18 0 -11 -6 -32 -14 -48 -8 -16 -21 -47 -31 -69 -59 -138 -204 -427 -217
-433 -5 -2 -8 -12 -8 -23 0 -10 -4 -19 -10 -19 -5 0 -10 -5 -10 -10 0 -6 -22
-47 -50 -91 -27 -44 -50 -85 -50 -90 0 -5 -4 -9 -10 -9 -5 0 -10 -5 -10 -11 0
-6 -36 -64 -80 -130 -44 -66 -80 -122 -80 -124 0 -3 -7 -13 -14 -22 -19 -22
-79 -104 -131 -179 -22 -31 -44 -62 -50 -68 -5 -6 -30 -38 -55 -71 -40 -54
-176 -222 -190 -235 -3 -3 -23 -27 -45 -55 -68 -86 -207 -229 -458 -474 -79
-76 -106 -121 -76 -121 15 0 165 75 179 90 3 3 29 20 59 38 50 31 270 192 299
220 8 7 30 25 50 40 21 15 44 34 52 42 8 9 53 47 100 85 246 203 499 450 650
637 117 145 111 137 140 178 13 19 27 37 30 40 3 3 21 25 40 50 45 57 62 79
76 94 24 25 184 265 184 275 0 6 3 11 8 11 4 0 12 10 18 23 22 46 95 181 112
206 10 14 24 40 32 56 8 17 17 32 20 35 6 5 126 249 153 310 28 64 87 229 102
286 8 31 16 58 17 60 2 1 17 5 33 8 17 3 24 3 18 0 -18 -8 -16 -31 3 -38 8 -3
13 -10 10 -14 -3 -5 4 -18 14 -30 11 -12 20 -25 20 -30 0 -14 25 -62 33 -62 4
0 7 -6 7 -13 0 -7 9 -32 20 -55 11 -22 27 -67 36 -99 9 -32 20 -74 26 -93 32
-113 49 -243 54 -412 6 -157 6 -156 -85 -162 -27 -2 -60 -11 -72 -20 -13 -9
-28 -16 -34 -16 -5 0 -3 5 5 10 11 8 7 9 -15 4 -16 -4 -33 -11 -36 -16 -3 -5
-10 -8 -15 -7 -5 1 -19 1 -31 0 -40 -2 -25 -18 25 -27 31 -5 39 -9 25 -12 -17
-2 -23 -10 -23 -28 0 -13 -3 -24 -7 -25 -5 0 -16 -2 -25 -4 -17 -3 -34 27 -30
53 3 11 -1 12 -25 12 -5 0 -8 -10 -8 -23 0 -15 -11 -27 -35 -39 l-35 -17 31
-1 c16 0 35 5 42 12 9 9 12 8 12 -4 0 -9 6 -18 13 -21 6 -2 8 -8 4 -13 -4 -5
-12 -2 -16 5 -9 13 -31 7 -31 -8 0 -9 110 -24 118 -17 3 3 -8 11 -24 17 -18 7
-24 13 -16 16 8 3 19 0 25 -6 6 -6 29 -11 52 -10 31 0 36 2 20 9 -14 6 1 9 48
9 37 1 67 5 67 11 0 6 14 10 30 10 29 0 30 -2 30 -44 0 -25 -4 -48 -10 -51
-15 -9 -13 -85 3 -86 6 0 2 -4 -10 -9 -13 -5 -23 -16 -23 -24 0 -8 -3 -23 -6
-33 -5 -15 -4 -15 5 -3 9 12 11 11 11 -7 0 -16 -4 -21 -15 -17 -11 5 -15 -1
-15 -24 0 -17 -5 -34 -10 -37 -6 -3 -10 -19 -10 -36 0 -16 -4 -29 -10 -29 -5
0 -10 -9 -10 -20 0 -11 -4 -20 -10 -20 -5 0 -10 -7 -10 -16 0 -8 5 -12 10 -9
6 3 10 1 10 -4 0 -6 -6 -11 -14 -11 -15 0 -46 -52 -46 -77 0 -8 -4 -11 -10 -8
-5 3 -10 2 -10 -4 0 -5 6 -12 13 -14 7 -4 6 -6 -4 -6 -16 -1 -72 -66 -75 -86
0 -5 -2 -16 -2 -22 -1 -7 -7 -13 -13 -13 -8 0 -8 5 1 15 21 26 -4 16 -35 -14
-17 -15 -44 -35 -60 -44 l-30 -16 48 1 c48 1 70 14 47 28 -7 5 -1 9 19 12 20
3 32 0 36 -10 9 -24 6 -32 -12 -32 -25 -1 -49 -21 -57 -48 -7 -22 -9 -22 -26
-7 -10 9 -27 15 -37 12 -16 -4 -16 -5 0 -6 20 -1 24 -60 5 -79 -22 -22 9 -14
70 18 49 26 192 155 192 174 0 4 9 16 19 28 19 19 69 116 106 203 9 22 22 50
27 62 6 12 8 33 6 47 -3 16 -1 26 6 26 11 0 36 87 36 126 0 11 4 24 9 29 5 6
12 35 14 65 3 30 9 70 12 88 l8 34 101 -6 c55 -3 148 -11 206 -17 115 -12 565
-15 645 -4 28 3 59 10 70 14 11 5 40 14 65 21 25 6 53 16 62 21 10 5 27 9 38
9 11 0 20 4 20 8 0 5 19 15 43 22 38 13 115 54 127 69 3 4 17 14 33 24 15 10
27 24 27 32 0 8 7 15 15 15 8 0 15 5 15 10 0 6 3 9 8 8 11 -3 52 26 52 37 0
24 26 65 42 65 11 0 20 15 28 50 9 38 16 50 31 50 13 0 19 7 19 24 0 39 12 86
21 81 20 -13 29 43 28 187 0 103 -5 165 -14 188 -7 19 -14 31 -14 25 -3 -24
-21 23 -21 53 0 22 -8 41 -23 55 -13 12 -29 32 -36 45 -6 12 -18 22 -26 22 -8
0 -20 10 -26 22 -32 60 -135 128 -228 152 -35 9 -102 16 -151 16 -128 0 -224
-43 -326 -146 -59 -59 -94 -106 -94 -128 0 -9 -4 -16 -8 -16 -5 0 -14 -28 -21
-62 -13 -70 -1 -141 36 -209 25 -46 91 -117 127 -136 39 -20 133 -20 171 0 35
19 104 87 88 87 -6 0 -16 -6 -22 -14 -18 -22 -134 -50 -175 -42 -27 5 -46 20
-81 62 -25 31 -45 64 -45 75 0 10 -4 19 -10 19 -16 0 -12 143 6 185 32 77 196
202 258 197 11 0 26 4 33 10 7 5 30 8 50 5 107 -16 173 -30 173 -37 0 -4 17
-15 38 -23 66 -26 158 -132 188 -213 25 -70 37 -183 26 -237 -6 -29 -14 -71
-17 -94 -4 -24 -11 -45 -16 -49 -5 -3 -18 -25 -29 -48 -19 -44 -47 -81 -85
-117 -72 -67 -110 -99 -118 -99 -5 0 -21 -8 -35 -18 -38 -26 -200 -90 -247
-98 -22 -4 -48 -11 -57 -15 -42 -22 -294 -27 -478 -9 -74 7 -162 14 -195 16
-96 5 -227 15 -261 20 l-30 4 -3 178 c-1 100 -6 178 -12 180 -5 2 -9 29 -9 61
0 31 -4 61 -9 67 -5 5 -11 27 -15 49 -12 87 -19 115 -27 115 -5 0 -9 14 -9 30
0 17 -4 30 -10 30 -5 0 -10 12 -10 26 0 14 -4 22 -10 19 -5 -3 -12 7 -16 22
-11 53 -36 118 -55 148 -10 17 -23 40 -29 53 -5 13 -15 20 -21 17 -6 -4 -10
-1 -8 6 3 29 -2 39 -20 39 -11 0 -23 5 -27 12 -5 8 -2 9 9 5 10 -3 17 -4 17
-1 0 11 -64 74 -76 74 -8 0 -11 6 -8 15 4 10 0 15 -12 15 -12 0 -15 3 -8 8 6
4 14 21 18 37 12 52 27 119 36 165 5 25 16 83 26 130 24 118 23 492 0 635 -10
55 -20 117 -23 138 -3 21 -10 40 -14 43 -5 3 -9 15 -9 26 0 45 -67 223 -126
334 -47 88 -142 237 -156 242 -4 2 -8 10 -8 17 0 7 -3 15 -8 17 -4 2 -23 23
-42 48 -73 96 -208 236 -308 319 -57 47 -109 88 -115 90 -7 2 -14 7 -17 10
-18 24 -143 96 -280 162 -158 77 -320 126 -531 164 -99 17 -469 21 -551 5 -29
-6 -78 -15 -108 -21 -114 -21 -221 -50 -326 -87 -111 -40 -346 -149 -352 -164
-2 -4 -9 -8 -16 -8 -7 0 -33 -13 -59 -30 -33 -21 -60 -30 -88 -30 -46 0 -72
23 -152 130 -64 86 -243 258 -306 294 -8 5 -25 18 -35 28 -11 10 -32 24 -48
30 -15 7 -28 16 -28 20 0 5 -7 8 -15 8 -8 0 -15 3 -15 8 0 4 -10 12 -23 18
-120 61 -168 85 -202 99 -22 9 -56 24 -75 32 -93 41 -264 84 -430 108 -121 18
-434 17 -555 -1z m4937 -3053 c-4 -3 -12 -15 -15 -25 -9 -22 -16 -17 -22 15
-3 13 -10 26 -16 28 -8 2 -7 6 2 11 14 9 65 -20 51 -29z m18 -25 c0 -3 -4 -8
-10 -11 -5 -3 -10 -1 -10 4 0 6 5 11 10 11 6 0 10 -2 10 -4z m40 -6 c0 -5 -4
-10 -10 -10 -5 0 -10 5 -10 10 0 6 5 10 10 10 6 0 10 -4 10 -10z m25 -80 c3
-5 1 -10 -4 -10 -6 0 -11 5 -11 10 0 6 2 10 4 10 3 0 8 -4 11 -10z m-25 -20
c0 -5 -4 -10 -10 -10 -5 0 -10 5 -10 10 0 6 5 10 10 10 6 0 10 -4 10 -10z m22
-50 c-10 -17 -10 -20 3 -20 8 0 15 -7 15 -15 0 -20 -16 -19 -24 1 -3 8 -9 13
-14 10 -12 -7 -10 37 3 51 17 19 32 -4 17 -27z m95 -62 c-3 -8 -6 -5 -6 6 -1
11 2 17 5 13 3 -3 4 -12 1 -19z m-35 -62 c3 -14 1 -31 -3 -38 -6 -9 -9 -7 -9
9 0 12 -3 28 -6 37 -3 9 -2 16 4 16 5 0 12 -11 14 -24z m111 -198 c6 -4 8 -10
5 -13 -13 -13 -28 6 -27 33 1 21 2 23 6 7 3 -11 10 -23 16 -27z m64 -80 c-3
-8 -6 -5 -6 6 -1 11 2 17 5 13 3 -3 4 -12 1 -19z m-102 -8 c3 -5 1 -10 -4 -10
-6 0 -11 5 -11 10 0 6 2 10 4 10 3 0 8 -4 11 -10z m12 -82 c-3 -8 -6 -5 -6 6
-1 11 2 17 5 13 3 -3 4 -12 1 -19z m100 -30 c-3 -8 -6 -5 -6 6 -1 11 2 17 5
13 3 -3 4 -12 1 -19z m-60 -240 c-3 -8 -6 -5 -6 6 -1 11 2 17 5 13 3 -3 4 -12
1 -19z m3 -208 c0 -5 -5 -10 -11 -10 -5 0 -7 5 -4 10 3 6 8 10 11 10 2 0 4 -4
4 -10z m-120 -32 c0 -7 -11 -18 -25 -25 -31 -14 -33 -1 -2 20 27 20 27 20 27
5z m-92 -35 c-10 -2 -26 -2 -35 0 -10 3 -2 5 17 5 19 0 27 -2 18 -5z m33 -23
c5 0 9 -4 9 -10 0 -15 -20 -12 -38 7 -16 16 -16 16 1 10 10 -4 23 -7 28 -7z
m74 -8 c-3 -3 -11 0 -18 7 -9 10 -8 11 6 5 10 -3 15 -9 12 -12z m185 -72 c0
-5 -5 -10 -11 -10 -5 0 -7 5 -4 10 3 6 8 10 11 10 2 0 4 -4 4 -10z m-20 -50
c0 -5 -4 -10 -10 -10 -5 0 -10 5 -10 10 0 6 5 10 10 10 6 0 10 -4 10 -10z
m-110 -240 c0 -5 -2 -10 -4 -10 -3 0 -8 5 -11 10 -3 6 -1 10 4 10 6 0 11 -4
11 -10z m22 -62 c-8 -8 -9 -4 -5 13 4 13 8 18 11 10 2 -7 -1 -18 -6 -23z m13
-49 c-10 -15 -25 -10 -19 6 4 8 10 12 15 9 5 -3 7 -10 4 -15z m-97 -114 c0
-16 -2 -15 -8 5 -11 34 -11 60 0 35 5 -11 8 -29 8 -40z m49 13 c-3 -8 -6 -5
-6 6 -1 11 2 17 5 13 3 -3 4 -12 1 -19z m-107 -28 c0 -5 -5 -10 -11 -10 -5 0
-7 5 -4 10 3 6 8 10 11 10 2 0 4 -4 4 -10z m96 -6 c-3 -9 -6 -21 -6 -27 0 -8
-3 -8 -10 -1 -12 12 -3 44 12 44 6 0 7 -7 4 -16z m-61 -14 c3 -5 1 -10 -4 -10
-6 0 -11 5 -11 10 0 6 2 10 4 10 3 0 8 -4 11 -10z m-44 -98 c-14 -5 -14 -42
-1 -42 6 0 10 7 10 15 0 8 5 15 11 15 14 0 -12 -42 -29 -48 -15 -5 -14 108 1
127 10 12 13 7 15 -25 2 -21 -1 -40 -7 -42z m-28 -79 c-7 -2 -19 -2 -25 0 -7
3 -2 5 12 5 14 0 19 -2 13 -5z m-73 -92 c0 -5 -9 -7 -20 -4 -14 4 -20 0 -20
-11 0 -9 -7 -16 -17 -16 -14 0 -14 2 2 20 18 20 55 28 55 11z"/>
<path d="M8936 4215 c4 -8 11 -15 16 -15 6 0 5 6 -2 15 -7 8 -14 15 -16 15 -2
0 -1 -7 2 -15z"/>
<path d="M7960 7250 c0 -6 11 -21 25 -32 14 -11 25 -26 25 -34 0 -8 5 -12 10
-9 6 3 10 1 10 -6 0 -7 6 -4 14 6 18 25 12 35 -19 35 -19 0 -23 4 -18 18 3 9
2 14 -2 9 -5 -4 -17 0 -27 10 -12 11 -18 12 -18 3z"/>
<path d="M12732 7195 c0 -16 2 -22 5 -12 2 9 2 23 0 30 -3 6 -5 -1 -5 -18z"/>
<path d="M8085 7170 c3 -5 -1 -10 -9 -10 -9 0 -16 -9 -16 -20 0 -11 7 -20 16
-20 8 0 12 5 9 10 -3 6 -1 10 6 10 23 0 38 -35 39 -89 0 -39 5 -57 18 -67 15
-12 15 -13 1 -14 -24 0 -19 -44 6 -49 11 -2 22 -7 25 -11 6 -9 117 -80 124
-80 3 0 35 -20 72 -45 36 -25 69 -45 75 -45 5 0 9 -4 9 -8 0 -5 12 -14 27 -21
35 -16 178 -110 274 -180 209 -153 287 -211 314 -235 158 -141 43 -2 -195 234
-171 169 -283 274 -345 321 -16 13 -32 26 -35 29 -3 3 -54 43 -114 89 -84 65
-110 80 -118 70 -7 -11 -8 -10 -6 5 2 10 -6 23 -16 30 -11 6 -29 19 -40 28
-11 10 -32 24 -48 30 -15 7 -28 17 -28 21 0 5 -4 6 -9 3 -5 -3 -11 1 -15 9 -3
8 -10 15 -16 15 -6 0 -8 -4 -5 -10z m120 -90 c3 -5 2 -10 -4 -10 -5 0 -13 5
-16 10 -3 6 -2 10 4 10 5 0 13 -4 16 -10z m-30 -20 c3 -5 1 -10 -4 -10 -6 0
-11 5 -11 10 0 6 2 10 4 10 3 0 8 -4 11 -10z m72 -52 c-3 -8 -6 -5 -6 6 -1 11
2 17 5 13 3 -3 4 -12 1 -19z m63 -8 c13 -8 13 -10 -2 -10 -9 0 -20 5 -23 10
-8 13 5 13 25 0z m-40 -19 c0 -6 -4 -13 -10 -16 -5 -3 -10 1 -10 9 0 9 5 16
10 16 6 0 10 -4 10 -9z"/>
<path d="M12663 7130 c0 -25 2 -35 4 -22 2 12 2 32 0 45 -2 12 -4 2 -4 -23z"/>
<path d="M12742 7140 c0 -14 2 -19 5 -12 2 6 2 18 0 25 -3 6 -5 1 -5 -13z"/>
<path d="M12686 7122 c-5 -21 -4 -38 3 -45 5 -5 8 -31 6 -56 -5 -43 -4 -44 5
-13 15 47 27 39 33 -20 3 -37 1 -58 -9 -69 -8 -8 -14 -35 -15 -60 l-1 -44 -9
45 c-5 25 -5 46 0 50 5 3 11 25 14 50 2 25 2 35 0 23 -2 -13 -11 -23 -20 -23
-13 0 -14 -11 -8 -77 4 -43 11 -79 16 -81 5 -2 10 -13 10 -25 1 -12 5 5 10 37
5 33 13 63 19 66 12 7 5 181 -8 240 l-9 35 -8 -35 -9 -35 -6 35 -6 35 -8 -33z"/>
<path d="M7860 7086 c0 -2 13 -6 29 -8 17 -2 28 -1 25 4 -5 8 -54 12 -54 4z"/>
<path d="M61 7054 c0 -11 3 -14 6 -6 3 7 2 16 -1 19 -3 4 -6 -2 -5 -13z"/>
<path d="M12671 7054 c0 -11 3 -14 6 -6 3 7 2 16 -1 19 -3 4 -6 -2 -5 -13z"/>
<path d="M7988 7032 c-17 -7 -16 -8 2 -20 16 -10 20 -10 20 2 0 8 6 17 13 19
8 4 7 5 -3 6 -8 0 -23 -4 -32 -7z"/>
<path d="M8040 7021 c0 -5 7 -14 15 -21 8 -7 15 -19 15 -26 0 -8 4 -14 9 -14
5 0 16 -3 25 -6 9 -3 16 -1 16 6 0 6 -4 8 -10 5 -5 -3 -19 10 -31 29 -20 34
-39 47 -39 27z"/>
<path d="M8025 6990 c3 -5 10 -10 16 -10 5 0 9 5 9 10 0 6 -7 10 -16 10 -8 0
-12 -4 -9 -10z"/>
<path d="M12750 6865 c-9 -36 -13 -65 -9 -65 4 0 9 6 12 13 2 6 3 3 1 -8 -2
-11 -4 -33 -5 -50 -1 -27 -2 -28 -7 -7 -4 13 -8 -60 -10 -162 -3 -174 -2 -186
15 -185 10 0 13 3 6 6 -15 5 -18 138 -5 147 15 9 33 236 25 308 l-8 67 -15
-64z m5 -210 c-12 -82 -13 -87 -9 -30 6 84 16 154 21 140 1 -6 -4 -55 -12
-110z"/>
<path d="M52 6900 c0 -14 2 -19 5 -12 2 6 2 18 0 25 -3 6 -5 1 -5 -13z"/>
<path d="M102 6860 c0 -14 2 -19 5 -12 2 6 2 18 0 25 -3 6 -5 1 -5 -13z"/>
<path d="M31 6704 c0 -11 3 -14 6 -6 3 7 2 16 -1 19 -3 4 -6 -2 -5 -13z"/>
<path d="M12700 6700 c0 -11 7 -20 15 -20 8 0 15 9 15 20 0 11 -7 20 -15 20
-8 0 -15 -9 -15 -20z"/>
<path d="M12782 6660 c0 -14 2 -19 5 -12 2 6 2 18 0 25 -3 6 -5 1 -5 -13z"/>
<path d="M51 6654 c0 -11 3 -14 6 -6 3 7 2 16 -1 19 -3 4 -6 -2 -5 -13z"/>
<path d="M12702 6620 c0 -14 2 -19 5 -12 2 6 2 18 0 25 -3 6 -5 1 -5 -13z"/>
<path d="M12781 6574 c0 -11 3 -14 6 -6 3 7 2 16 -1 19 -3 4 -6 -2 -5 -13z"/>
<path d="M12704 6400 c-1 -163 -1 -164 7 -55 4 61 4 135 1 165 -5 37 -8 1 -8
-110z"/>
<path d="M12771 6293 c0 -25 1 -26 9 -8 12 27 12 35 0 35 -5 0 -10 -12 -9 -27z"/>
<path d="M12735 6271 c-4 -7 -5 -54 -2 -105 3 -50 2 -77 -2 -61 l-7 30 -6 -27
c-3 -16 -1 -28 3 -28 5 0 9 -15 9 -33 0 -17 4 -47 9 -65 11 -39 2 -157 -10
-127 -5 14 -8 16 -10 5 -1 -8 -5 1 -9 20 l-7 35 -2 -37 c-1 -28 3 -38 14 -38
11 0 15 -11 15 -40 0 -43 -16 -55 -23 -17 -2 12 -3 7 -1 -12 4 -39 21 -63 28
-40 3 8 8 53 11 102 4 48 11 85 15 82 5 -3 6 5 3 17 -7 29 -8 51 -4 108 3 38
4 41 11 20 4 -14 5 13 2 59 -6 95 -24 172 -37 152z m18 -210 c-7 -47 -9 -38
-9 64 0 108 1 113 8 56 5 -34 5 -88 1 -120z"/>
<path d="M12781 6224 c0 -11 3 -14 6 -6 3 7 2 16 -1 19 -3 4 -6 -2 -5 -13z"/>
<path d="M12703 6195 c0 -22 2 -30 4 -17 2 12 2 30 0 40 -3 9 -5 -1 -4 -23z"/>
<path d="M12782 6135 c0 -16 2 -22 5 -12 2 9 2 23 0 30 -3 6 -5 -1 -5 -18z"/>
<path d="M12711 6027 c0 -16 -5 -26 -11 -22 -6 4 -10 -12 -9 -42 l1 -48 14 50
c8 28 12 59 10 70 -2 13 -4 10 -5 -8z"/>
<path d="M12721 5934 c0 -11 3 -14 6 -6 3 7 2 16 -1 19 -3 4 -6 -2 -5 -13z"/>
<path d="M12691 5680 c0 -33 1 -34 10 -11 6 16 6 28 -1 35 -7 7 -10 -1 -9 -24z"/>
<path d="M12661 5664 c0 -11 3 -14 6 -6 3 7 2 16 -1 19 -3 4 -6 -2 -5 -13z"/>
<path d="M12721 5664 c0 -11 3 -14 6 -6 3 7 2 16 -1 19 -3 4 -6 -2 -5 -13z"/>
<path d="M12742 5660 c0 -14 2 -19 5 -12 2 6 2 18 0 25 -3 6 -5 1 -5 -13z"/>
<path d="M12721 5504 c0 -11 3 -14 6 -6 3 7 2 16 -1 19 -3 4 -6 -2 -5 -13z"/>
<path d="M12670 5429 c0 -5 5 -7 10 -4 6 3 10 8 10 11 0 2 -4 4 -10 4 -5 0
-10 -5 -10 -11z"/>
<path d="M12651 5348 c-5 -13 -6 -27 -2 -33 3 -5 7 3 9 18 3 27 4 28 18 10 14
-17 14 -16 4 5 -6 12 -13 22 -16 22 -2 0 -8 -10 -13 -22z"/>
<path d="M12640 5210 c0 -5 5 -10 11 -10 5 0 7 5 4 10 -3 6 -8 10 -11 10 -2 0
-4 -4 -4 -10z"/>
<path d="M12611 5134 c0 -11 3 -14 6 -6 3 7 2 16 -1 19 -3 4 -6 -2 -5 -13z"/>
<path d="M12571 4944 c0 -11 3 -14 6 -6 3 7 2 16 -1 19 -3 4 -6 -2 -5 -13z"/>
<path d="M12555 4890 c-3 -5 -1 -10 4 -10 6 0 11 5 11 10 0 6 -2 10 -4 10 -3
0 -8 -4 -11 -10z"/>
<path d="M12587 4843 c-4 -3 -7 -11 -7 -17 0 -6 5 -5 12 2 6 6 9 14 7 17 -3 3
-9 2 -12 -2z"/>
<path d="M12510 4629 c0 -5 5 -7 10 -4 6 3 10 8 10 11 0 2 -4 4 -10 4 -5 0
-10 -5 -10 -11z"/>
<path d="M8093 4483 c9 -2 23 -2 30 0 6 3 -1 5 -18 5 -16 0 -22 -2 -12 -5z"/>
<path d="M8388 4483 c7 -3 16 -2 19 1 4 3 -2 6 -13 5 -11 0 -14 -3 -6 -6z"/>
<path d="M8143 4373 c9 -2 23 -2 30 0 6 3 -1 5 -18 5 -16 0 -22 -2 -12 -5z"/>
<path d="M8258 4373 c12 -2 30 -2 40 0 9 3 -1 5 -23 4 -22 0 -30 -2 -17 -4z"/>
<path d="M9221 3854 c0 -11 3 -14 6 -6 3 7 2 16 -1 19 -3 4 -6 -2 -5 -13z"/>
<path d="M8938 2963 c7 -3 16 -2 19 1 4 3 -2 6 -13 5 -11 0 -14 -3 -6 -6z"/>
<path d="M8778 2927 c-31 -17 -56 -32 -55 -33 5 -6 77 22 77 29 0 5 5 5 10 2
12 -7 40 12 40 26 0 13 -10 10 -72 -24z"/>
<path d="M8675 2860 c-3 -5 1 -10 10 -10 9 0 13 5 10 10 -3 6 -8 10 -10 10 -2
0 -7 -4 -10 -10z"/>
<path d="M8633 2826 c-4 -7 -15 -16 -23 -19 -9 -3 -5 -6 10 -6 19 -1 26 4 26
19 0 24 -2 25 -13 6z"/>
<path d="M8800 2814 c0 -6 7 -14 15 -18 20 -7 46 4 39 16 -4 6 -10 5 -15 -3
-7 -11 -9 -11 -9 2 0 9 -7 16 -15 16 -8 0 -15 -6 -15 -13z"/>
<path d="M8876 2814 c-5 -13 -3 -14 6 -7 7 6 20 13 28 16 10 4 8 6 -6 6 -12 1
-25 -6 -28 -15z"/>
<path d="M8678 2813 c7 -3 16 -2 19 1 4 3 -2 6 -13 5 -11 0 -14 -3 -6 -6z"/>
<path d="M8740 2791 c0 -5 5 -11 12 -13 6 -2 8 -10 4 -17 -5 -7 -15 -10 -23
-7 -9 4 -13 1 -11 -6 8 -22 24 -19 51 8 15 15 27 21 27 15 0 -7 5 -9 11 -5 16
10 -9 23 -32 17 -10 -3 -19 0 -19 6 0 6 -4 11 -10 11 -5 0 -10 -4 -10 -9z"/>
<path d="M8577 2773 c-4 -3 -7 -11 -7 -17 0 -6 5 -5 12 2 6 6 9 14 7 17 -3 3
-9 2 -12 -2z"/>
<path d="M8610 2740 c0 -5 4 -10 9 -10 6 0 13 5 16 10 3 6 -1 10 -9 10 -9 0
-16 -4 -16 -10z"/>
<path d="M8685 2695 c-16 -13 -25 -24 -20 -24 6 0 24 11 40 24 17 14 26 25 20
25 -5 0 -23 -11 -40 -25z"/>
<path d="M8490 2660 c0 -5 5 -10 10 -10 6 0 10 5 10 10 0 6 -4 10 -10 10 -5 0
-10 -4 -10 -10z"/>
<path d="M8471 2633 c-1 -6 -4 -20 -7 -30 -5 -17 -5 -17 6 0 6 10 9 23 6 30
-3 9 -5 9 -5 0z"/>
<path d="M8620 2627 c-20 -16 -44 -47 -37 -47 4 0 20 14 37 30 30 29 30 41 0
17z"/>
<path d="M8416 2534 c-4 -14 -5 -29 -2 -31 3 -3 8 7 12 21 3 15 4 29 1 32 -2
3 -8 -7 -11 -22z"/>
<path d="M8556 2523 c-6 -14 -5 -15 5 -6 7 7 10 15 7 18 -3 3 -9 -2 -12 -12z"/>
<path d="M8472 2500 c0 -14 2 -19 5 -12 2 6 2 18 0 25 -3 6 -5 1 -5 -13z"/>
<path d="M8520 2460 c0 -11 2 -20 4 -20 2 0 6 9 9 20 3 11 1 20 -4 20 -5 0 -9
-9 -9 -20z"/>
<path d="M8481 2444 c0 -11 3 -14 6 -6 3 7 2 16 -1 19 -3 4 -6 -2 -5 -13z"/>
<path d="M8495 2410 c-3 -5 -1 -10 4 -10 6 0 11 5 11 10 0 6 -2 10 -4 10 -3 0
-8 -4 -11 -10z"/>
<path d="M8381 2384 c0 -11 3 -14 6 -6 3 7 2 16 -1 19 -3 4 -6 -2 -5 -13z"/>
<path d="M8502 2365 c0 -16 2 -22 5 -12 2 9 2 23 0 30 -3 6 -5 -1 -5 -18z"/>
<path d="M8480 2331 c0 -5 5 -13 11 -17 8 -4 10 -26 6 -60 -3 -31 -2 -54 4
-54 16 0 11 110 -6 126 -8 9 -15 11 -15 5z"/>
<path d="M8515 2170 c-3 -5 -1 -10 4 -10 6 0 11 5 11 10 0 6 -2 10 -4 10 -3 0
-8 -4 -11 -10z"/>
<path d="M8390 2156 c0 -2 7 -6 15 -10 8 -3 15 -1 15 4 0 6 -7 10 -15 10 -8 0
-15 -2 -15 -4z"/>
<path d="M8765 2110 c17 -7 14 -9 -15 -10 -20 -2 -27 -4 -16 -7 27 -7 107 7
101 18 -4 5 -25 9 -48 8 -33 0 -38 -2 -22 -9z"/>
<path d="M8613 2093 c9 -2 25 -2 35 0 9 3 1 5 -18 5 -19 0 -27 -2 -17 -5z"/>
<path d="M8490 2021 c14 -11 27 -15 29 -10 4 13 2 15 -29 23 l-25 7 25 -20z"/>
<path d="M8635 1990 c-49 -3 -72 -7 -50 -9 32 -2 36 -4 20 -11 -19 -8 -19 -9
2 -9 12 -1 25 4 28 9 3 6 24 10 46 10 21 0 39 -4 39 -10 0 -13 40 -13 60 0 11
7 5 10 -23 10 -23 0 -36 4 -32 10 3 6 5 9 3 8 -2 -1 -43 -5 -93 -8z"/>
<path d="M8800 1979 c0 -5 5 -7 10 -4 6 3 10 8 10 11 0 2 -4 4 -10 4 -5 0 -10
-5 -10 -11z"/>
</g>
</svg>
